/* XPM */
static char *back[] = {
/* columns rows colors chars-per-pixel */
"32 32 228 2 ",
"   c #45291F",
".  c #5A2C1F",
"X  c #60361F",
"o  c #68361C",
"O  c #693A1F",
"+  c #622D20",
"@  c #6B3D23",
"#  c #6C3C21",
"$  c #733923",
"%  c #703F24",
"&  c #693A32",
"*  c #6F3F36",
"=  c #693E38",
"-  c #5D4035",
";  c #68452F",
":  c #6A4D28",
">  c #714026",
",  c #714226",
"<  c #71412F",
"1  c #775037",
"2  c #4F3F46",
"3  c #594347",
"4  c #614F4E",
"5  c #714345",
"6  c #645548",
"7  c #745446",
"8  c #745248",
"9  c #7A5449",
"0  c #7F594E",
"q  c #7B4E50",
"w  c #6E5356",
"e  c #B41C31",
"r  c #AE2D2C",
"t  c #BE2224",
"y  c #BD2F22",
"u  c #B8272F",
"i  c #BD262E",
"p  c #AC342E",
"a  c #B9342D",
"s  c #AD2F3A",
"d  c #A93232",
"f  c #C1221F",
"g  c #C82018",
"h  c #C62C1D",
"j  c #C82423",
"k  c #CA2525",
"l  c #C12A20",
"z  c #C52C24",
"x  c #CD2B21",
"c  c #C52B2F",
"v  c #D12C2C",
"b  c #C73421",
"n  c #C72E34",
"m  c #C92D35",
"M  c #CD2D36",
"N  c #C3263C",
"B  c #D22830",
"V  c #D6233E",
"C  c #CE3039",
"Z  c #D33034",
"A  c #D73236",
"S  c #DA3532",
"D  c #D93034",
"F  c #DE3334",
"G  c #D93735",
"H  c #D4353D",
"J  c #D4353E",
"K  c #DC3A38",
"L  c #8F4836",
"P  c #B24938",
"I  c #B64B3C",
"U  c #C74C3B",
"Y  c #C53143",
"T  c #C33445",
"R  c #C5334F",
"E  c #D23240",
"W  c #D13A47",
"Q  c #DC3C44",
"!  c #D53948",
"~  c #D63C48",
"^  c #DA3E4E",
"/  c #C83850",
"(  c #CA3857",
")  c #CF3B57",
"_  c #D33B53",
"`  c #D33955",
"'  c #D73B55",
"]  c #D93A50",
"[  c #D93B53",
"{  c #DB3F54",
"}  c #815541",
"|  c #AF4147",
" . c #B64C66",
".. c #BB506E",
"X. c #DE424B",
"o. c #DE404F",
"O. c #C6445F",
"+. c #CC405A",
"@. c #C9475F",
"#. c #DB4051",
"$. c #D94854",
"%. c #E14455",
"&. c #E34755",
"*. c #E74955",
"=. c #E8475C",
"-. c #E34858",
";. c #E14F59",
":. c #E44E59",
">. c #E64C5A",
",. c #E94F5E",
"<. c #ED595F",
"1. c #CE5166",
"2. c #E95060",
"3. c #E85A63",
"4. c #ED5B65",
"5. c #C4657D",
"6. c #ECA863",
"7. c #F0AF7C",
"8. c #2D3DB9",
"9. c #393AB2",
"0. c #363CB8",
"q. c #313EBF",
"w. c #3939BC",
"e. c #403CAB",
"r. c #3544BE",
"t. c #4E4EA3",
"y. c #5851A4",
"u. c #4043B0",
"i. c #4142B5",
"p. c #1D3ED1",
"a. c #2637C9",
"s. c #2B33C8",
"d. c #2A3BCE",
"f. c #2C39CC",
"g. c #313BC3",
"h. c #363FC3",
"j. c #383BC6",
"k. c #323BCD",
"l. c #3039CE",
"z. c #2835D3",
"x. c #2539D6",
"c. c #2A3DD5",
"v. c #2C3CD5",
"b. c #2434DA",
"n. c #263CDF",
"m. c #293BD8",
"M. c #2D3BD9",
"N. c #2C3CDA",
"B. c #2236E0",
"V. c #2B3DE4",
"C. c #4B3CEB",
"Z. c #2D40C7",
"A. c #3D43C7",
"S. c #3641CF",
"D. c #3040DB",
"F. c #3443DE",
"G. c #2B42EA",
"H. c #2D41EF",
"J. c #3340E2",
"K. c #3342E3",
"L. c #3642E2",
"P. c #3644E2",
"I. c #3645E2",
"U. c #3241E6",
"Y. c #3544E5",
"T. c #3445E5",
"R. c #3945E0",
"E. c #3141ED",
"W. c #3242EF",
"Q. c #3045ED",
"!. c #3A45EA",
"~. c #3F49EC",
"^. c #394CEC",
"/. c #2E50ED",
"(. c #3654EE",
"). c #2A46F2",
"_. c #2B4BFC",
"`. c #3246F1",
"'. c #3448F5",
"]. c #354BF7",
"[. c #3C4BF0",
"{. c #3C4DF2",
"}. c #3F4EF2",
"|. c #394DF4",
" X c #3047F9",
".X c #3348F9",
"XX c #364BFD",
"oX c #354CFD",
"OX c #2D57F2",
"+X c #3D55F9",
"@X c #3F51FE",
"#X c #3D58FF",
"$X c #7075CB",
"%X c #414BE9",
"&X c #444FF9",
"*X c #4153F8",
"=X c #4856FA",
"-X c #4A59FA",
";X c #4C61FC",
":X c #5464FD",
">X c #AE3E9F",
",X c #934283",
"<X c #857B86",
"1X c #804BB5",
"2X c #D56C80",
"3X c #C4818F",
"4X c #DD9A8C",
"5X c #C58491",
"6X c #FBBFA8",
"7X c #E6C1B4",
"8X c #8585E8",
"9X c #D6D5DB",
"0X c #F6E8DF",
"qX c #EEE7E6",
"wX c #F3EAE2",
"eX c #F8F6EA",
"rX c #E8EBF2",
"tX c #EDEEF3",
"yX c #E5F6FC",
"uX c #FAF8F3",
"iX c #FFFCFB",
"pX c #FEFEFB",
"aX c #F8FAFC",
"sX c #FAFAFD",
"dX c #FBFAFE",
"fX c #FBFEFD",
"gX c #F8FEFE",
"hX c None",
/* pixels */
"hXhXhXhXhXhXhXhXhXhXhXhXhXhXhXhXhXhXhXhXhXhXhXhXhXhXhXhXhXhXhXhX",
"hXhXhXhXhXhXhXhXhXhXhXhXhXhXhXhXhXhXhXhXhXhXhXhXhXhXhXhXhXhXhXhX",
"hXhXhXhXhXhXhXhXhXhXhXhXhXhXhXhXhXhXhXhXhXhXhXhXhXhXhXhXhXhXhXhX",
"hXhXhXhXhXhXhXhXhXhXhXhXhXhXhXhXhXhXhXhXhXhXhXhXhXhXhXhXhXhXhXhX",
"hXhXhXhXhXhXhXhXhXhXhXhXhXhXhXhXhXhXhXhXhXhXhXhXhXhXhXhXhXhXhXhX",
"hXhXhXhXhXhXhXhXhXhXhXhXhXhXhX@.+. .hXhXhXhXhXhXhXhXhXhXhXhXhXhX",
"hXhXhXhXhXhXhXhXhXhXhXhXhX[ &.-.#.! Y / 5XhXhXhXhXhXhXhXhXhXhXhX",
"hXhXhXhXhXhXhXhXhXhXhXO.[ :.3.:.~ H M m u hXhXhXhXhXhXhXhXhXhXhX",
"hXhXhXhXhXhXhXhXhXhX1.T o.*.=.{ ' _ _ ) ( ..hXhXhXhXhXhXhXhXhXhX",
"hXhXhXhXhXhXhXhXhXhXhX| E Q &.4.;.o.H C m i s hXhXhXhXhXhXhXhXhX",
"hXhXhXhXhXhXhXhXhXhXhXw 7Xp D K G v k j f t d hXhXhXhXhXhXhXhXhX",
"hXhXhXhXhXhXhXhXhXhXhXhX7.6X; P U I L o . hXhXhXhXhXhXhXhXhXhXhX",
"hXhXhXhXhXhXhXhXhXhXhXhXhX6.$ q 5 = & < + hXhXhXhXhXhXhXhXhXhXhX",
"hXhXhXhXhXhXhXhXhXhXhXhXhX,.5.>X$.W V n p.R hXhXhXhXhXhXhXhXhXhX",
"hXhXhXhXhXhXhXhXhXhXhXhX2.A g #X1X%X_.V.k.F B e hXhXhXhXhXhXhXhX",
"hXhXhXhXhXhXhXhXhXhX2X<.l a OX:X-X.XXX).n.,XZ z r hXhXhXhXhXhXhX",
"hXhXhXhXhXhXhXhXhX^ S N C./.@X=XU.E.%Xb.x.0.4Xb h 3XhXhXhXhXhXhX",
"hXhXhXhXhXhXhXfXeXx y hX`.d.F.S.A.h.g.9.g.$XaXaXpXrX9XhXhXhXhXhX",
"hXhXhXhXhXhXyXiXfXqXhXhX X|.K.j.9.y.t.i.0.A.hXuXwXtXhXhXhXhXhXhX",
"hXhXhXhXhXhXhXwXaXhXhXhX X}.T.Z.u.c.L.P.!.l.hXhXhXhXhXhXhXhXhXhX",
"hXhXhXhXhXhXhXhXhXhXhX&X'.}.K.a.hXhXD.R.R.z.8XhXhXhXhXhXhXhXhXhX",
"hXhXhXhXhXhXhXhXhXhXhX(.Q.[.N.s.hXhXv.Y.N.m.d.hXhXhXhXhXhXhXhXhX",
"hXhXhXhXhXhXhXhXhXhXhX).*X^.V.8.hXhXW.XX;X+XB.<XhXhXhXhXhXhXhXhX",
"hXhXhXhXhXhXhXhX8 0 } 1 7 6 3 2 hXhXhX: } < + 6 hXhXhXhXhXhXhXhX",
"hXhXhXhXhXhXhXhX- O , @ , % #   hXhXhXhXhXhXhXhXhXhXhXhXhXhXhXhX",
"hXhXhXhXhXhXhXhXhXhXhXhXhXhXhXhXhXhXhXhXhXhXhXhXhXhXhXhXhXhXhXhX",
"hXhXhXhXhXhXhXhXhXhXhXhXhXhXhXhXhXhXhXhXhXhXhXhXhXhXhXhXhXhXhXhX",
"hXhXhXhXhXhXhXhXhXhXhXhXhXhXhXhXhXhXhXhXhXhXhXhXhXhXhXhXhXhXhXhX",
"hXhXhXhXhXhXhXhXhXhXhXhXhXhXhXhXhXhXhXhXhXhXhXhXhXhXhXhXhXhXhXhX",
"hXhXhXhXhXhXhXhXhXhXhXhXhXhXhXhXhXhXhXhXhXhXhXhXhXhXhXhXhXhXhXhX",
"hXhXhXhXhXhXhXhXhXhXhXhXhXhXhXhXhXhXhXhXhXhXhXhXhXhXhXhXhXhXhXhX",
"hXhXhXhXhXhXhXhXhXhXhXhXhXhXhXhXhXhXhXhXhXhXhXhXhXhXhXhXhXhXhXhX"
};
