/* XPM */
static char *coins[] = {
/* columns rows colors chars-per-pixel */
"32 32 193 2 ",
"   c #7A5404",
".  c #7A551E",
"X  c #845D05",
"o  c #8B5A05",
"O  c #875508",
"+  c #935F04",
"@  c #8F5B1C",
"#  c #866107",
"$  c #8B6904",
"%  c #8D6A0B",
"&  c #88640A",
"*  c #936205",
"=  c #986A05",
"-  c #8F770A",
";  c #8D7305",
":  c #967603",
">  c #9A7604",
",  c #91770F",
"<  c #9B7802",
"1  c #936C13",
"2  c #957718",
"3  c #A47604",
"4  c #A87606",
"5  c #A27804",
"6  c #A97904",
"7  c #A17209",
"8  c #815C25",
"9  c #8A682D",
"0  c #A17D24",
"q  c #9D7E63",
"w  c #AC8307",
"e  c #AB830A",
"r  c #BC8D06",
"t  c #BE920A",
"y  c #B38A13",
"u  c #9F8725",
"i  c #B08F29",
"p  c #AA912A",
"a  c #B49325",
"s  c #B89B29",
"d  c #A99131",
"f  c #B39A34",
"g  c #B9A33C",
"h  c #CA9C09",
"j  c #C89409",
"k  c #C49710",
"l  c #C39B12",
"z  c #CEA506",
"x  c #CEA30C",
"c  c #D2A605",
"v  c #D5A906",
"b  c #DDAD04",
"n  c #D3A60A",
"m  c #DDA70B",
"M  c #DAAB0B",
"N  c #D6AE0D",
"B  c #DDB105",
"V  c #D7B50B",
"C  c #CBA811",
"Z  c #D5AD14",
"A  c #D5AB1C",
"S  c #D2A519",
"D  c #DDB710",
"F  c #DFBA17",
"G  c #D7B11A",
"H  c #DFB11F",
"J  c #E2AE04",
"K  c #E8AE07",
"L  c #E3AD08",
"P  c #E3B306",
"I  c #E8B705",
"U  c #E6BA05",
"Y  c #EBBC05",
"T  c #E5B50A",
"R  c #EBB60A",
"E  c #E5BA0A",
"W  c #EBBC0A",
"Q  c #F1BF05",
"!  c #F2BB0A",
"~  c #E5BB14",
"^  c #EDBD16",
"/  c #E1B41D",
"(  c #EBB51C",
")  c #E6BB1C",
"_  c #E9BE1A",
"`  c #F1BC14",
"'  c #C09B32",
"]  c #CBAF25",
"[  c #CFB626",
"{  c #D8B628",
"}  c #C7A235",
"|  c #CDB331",
" . c #D2B333",
".. c #E7BB22",
"X. c #F1BD21",
"o. c #E6C402",
"O. c #EDC105",
"+. c #E3C20B",
"@. c #EBC20B",
"#. c #F3C405",
"$. c #F7C905",
"%. c #FACB05",
"&. c #F3C40C",
"*. c #F5C80B",
"=. c #FBCB0B",
"-. c #FDD40C",
";. c #FCD502",
":. c #EBC215",
">. c #EBC11A",
",. c #EDCC19",
"<. c #F3C614",
"1. c #F4C915",
"2. c #F9CC13",
"3. c #F6CB1B",
"4. c #FBCC1C",
"5. c #F9C713",
"6. c #FED313",
"7. c #FCD31B",
"8. c #FFD91E",
"9. c #F5D413",
"0. c #EDC420",
"q. c #EDC821",
"w. c #E2C928",
"e. c #E8CE26",
"r. c #F6CD27",
"t. c #FDCE22",
"y. c #FDD324",
"u. c #F7D821",
"i. c #FFD923",
"p. c #F7D32E",
"a. c #FED62C",
"s. c #FED92D",
"d. c #E3CC3A",
"f. c #EDC135",
"g. c #F5CC3C",
"h. c #FDD633",
"j. c #FDDB35",
"k. c #FEDC3C",
"l. c #F7D336",
"z. c #FDE02B",
"x. c #F8E131",
"c. c #FEE33C",
"v. c #9D835B",
"b. c #A88D60",
"n. c #A49472",
"m. c #DAB74E",
"M. c #C7B457",
"N. c #CAB957",
"B. c #D0BB74",
"V. c #E3CB4D",
"C. c #F6D740",
"Z. c #FED745",
"A. c #FEDE44",
"S. c #FCDE4D",
"D. c #F3DA53",
"F. c #FDE243",
"G. c #F9EF47",
"H. c #FEE44B",
"J. c #F7E94E",
"K. c #FEEA4C",
"L. c #FFF644",
"P. c #FEE453",
"I. c #FCED52",
"U. c #FDE55C",
"Y. c #FDEA5C",
"T. c #FFF05D",
"R. c #FEE663",
"E. c #FDEB64",
"W. c #FBE56B",
"Q. c #FEEC6C",
"!. c #F6E56A",
"~. c #FEF167",
"^. c #FDF26B",
"/. c #FEED72",
"(. c #FDF473",
"). c #FDF976",
"_. c #FEFC79",
"`. c #FAF67D",
"'. c #C2AE8C",
"]. c #CCBF95",
"[. c #FEFE82",
"{. c #F7FF8B",
"}. c #FEFD8B",
"|. c #FDFC92",
" X c #FDFA99",
".X c #D1C1AC",
"XX c #FFFCA0",
"oX c #FFFBAF",
"OX c #EAE1BE",
"+X c #FFF2B6",
"@X c #FEFCB8",
"#X c #FFFCC7",
"$X c None",
/* pixels */
"$X$X$X$X$X$X$X$X$X$X$X$X$X(.W.S.A.a.p.$X$X$X$X$X$X$X$X$X$X$X$X$X",
"$X$X$X$X$X$X$X$X$X$X`.I.T.^.Q.Q.Q.!.!.R.U.p.$X$X$X$X$X$X$X$X$X$X",
"$X$X$X$X$X$X$X$X(.I.~.Q./././.Q.Q.Q.E.R.P.P.H.e.$X$X$X$X$X$X$X$X",
"$X$X$X$X$X$X#XK.K.E.^.^.(.Q.Q.!.W.W.R.I.P.H.A.k.h.| $X$X$X$X$X$X",
"$X$X$X$X$X XI.E.^./.).f &   2 , , % # $  .F.k.A.j.p.C $X$X$X$X$X",
"$X$X$X$X}.G.E.^.).f   p }.}.[._.).(.!.Y.m.1 [ A.j.s.u.z $X$X$X$X",
"$X$X$X@XK./.^.(.& d |. X}.[.[.).).~.~.Y.H.F.} e k.i.y.9.' $X$X$X",
"$X$X$XJ.T.(.(.# M.|.|.}.{.$ y y y y d.P.P.F.j.Z.5 u.8.6.6.].$X$X",
"$X$XE.Y.^.(.& N.{.}.}.[._.: t l l k S.S.A.k.j.a.k.t y.6.;.L $X$X",
"$X$XI.E.^.i u [.[.}.[.[._.: t Z A S A.A.k.k.a.y.a...>.6.2.=.$X$X",
"$XJ.R.Q.Q.  [.[.[.[.[._.(.: h ) / / H.k.k.a.y.y.r.r.h 2.%.%.k $X",
"$XY.E.E.s g )._.)._.).).Q.> z ) ) / H.k.a.y.t.r.1.<._ <.%.*.5.$X",
"$XU.R.Y.% (.).).(.(.^.Q.Y.< n _ ) / F.a.y.t.3.5.*.#.O.P %.%.#.$X",
"C.Y.Y.R.X ~.^.^.^.E.R.Y.P.< c >._ ..F.a.t.t.1.<.*.O.O.U %.#.#.$X",
"w.H.P.P.$ E.E.E.Y.R.U.P.P.5 c :._ ..c.t.4.1.<.O.O.O.O.Y $.#.#.7 ",
",.P.J.S.a U.Y.U.U.P.S.k.A.3 v >.0...F.3.1.*.O.O.O.O.Y Y #.#.#.6 ",
"q.c.F.S.s P.P.H.H.F.F.k.k.5 c >.0...F.1.<.#.O.O.Y I W O.#.#.Y 6 ",
"F k.A.F.> A.k.F.A.k.h.h.a.5 v :.>.0.c.*.#.Q Y I I I U +.O.O.Q * ",
"{ c.k.j.$ k.j.j.h.a.a.y.t.3 v @.:.:.c.#.Y Y Y I U U P x.@.Q Y 9 ",
"OXj.c.j.e s.h.y.a.y.4.7.2.4 v O.@.~ K.Y Y Y I P P P E L.#.Q Y $X",
"$Xs.s.s.G g.y.7.2.4.=.*.#.3 v W +.+.K.I I I P P P B ~ e.Q W ` $X",
"$XT i.i.i.r <.2.*.#.*.#.#.4 z Y o.Y H.I P P B B B B ^.+.! Y = $X",
"$XB.-.6.6.~ ^ #.#.#.#.#.#.4 c o.o.O.H.P J b B b V Z d.! W ! n.$X",
"$X$XU %.-.;.n Y Y #.Q Y Y 4 z U o.o.H.J J B b B M  X` Y &.4 $X$X",
"$X$X$X;.=.%.=.P Y Y Y I I n D.P.U.W./.b b v M b +X@.W Y ^ .X$X$X",
"$X$X$Xa =.%.%.=.Y Y Y I P P J K L M N m b m ] @XU W W T 8 $X$X$X",
"$X$X$X$Xw =.$.$.$.#.*.P P P B b B v n M A oXV.I W Y W o $X$X$X$X",
"$X$X$X$X$Xw #.$.$.#.$.=.s.c.D N N [ /.XXV.! Y Y U P O $X$X$X$X$X",
"$X$X$X$X$X$X0 &.5.#.#.#.#.@.@.W ~ W W Y Y Y I W ( . $X$X$X$X$X$X",
"$X$X$X$X$X$X$X'.j ! Q ! Q #.W #.O.Y Y Y W U R 7 $X$X$X$X$X$X$X$X",
"$X$X$X$X$X$X$X$X$Xb.6 ` Y Y I Y Y W Y Y ( + v.$X$X$X$X$X$X$X$X$X",
"$X$X$X$X$X$X$X$X$X$X$X$Xv.@ o * * O O q $X$X$X$X$X$X$X$X$X$X$X$X"
};
