/* XPM */
static char *floor[] = {
/* columns rows colors chars-per-pixel */
"32 32 23 1 ",
"  c #392114",
". c #3C2215",
"X c #3E2315",
"o c #412415",
"O c #492817",
"+ c #542C19",
"@ c #592E1A",
"# c #5F311B",
"$ c #6F371E",
"% c #70381E",
"& c #7F3E21",
"* c #994C2A",
"= c #9A4D2A",
"- c #9B4D2B",
"; c #9F502C",
": c #A2522E",
"> c #A6542F",
", c #AA5731",
"< c #B45D35",
"1 c #BD6239",
"2 c #C2653B",
"3 c #F2F1F0",
"4 c #F3F2F1",
/* pixels */
"1222222222222223322222222222222*",
";,,,,,,,,,,,,,,  ,,,,,,,,,,,,,<$",
";,,,,,,,,,,,,,,  ,,,,,,,,,,,,,,&",
"-,,,,,,,,,,,,,,  ,,,,,,,,,,,,,,&",
"-,,,,,,,,,,,,,,  ,,,,,,,,,,,,,,&",
"-,,,,,,,,,,,,,,  ,,,,,,,,,,,,,,@",
"-,,,,,,,,,,,,,,  ,,,,,,,,,,,,,,&",
"*,,,,,,,,,,,,,,  ,,,,,,,,,,,,,,&",
"-,,,,,,,,,,,,,,  ,,>,,,,,,,,,,,$",
"                  .     ..    .o",
"3. O. ...         ..O.      ...3",
"1222221..22222222222222$ 222122>",
"-,,,,,,. ,,,,,,,,,,,,,, .,,,,,,&",
"-,,,,,,O ,,,,,,,,,,,,,,  ,,,,,,&",
"-,,,,,,  ,,,,,,,,,,,,,,  ,,,,,,&",
"*,,,,,,  ,,,,,,,,,,,,,,  ,,,,,,&",
":,,,,,,. ,,,,,,,,,,,,,,  ,,,,,,&",
";,,,,,,  ,,,,,,,,,,,,,,  ,,,,,,&",
"->,,,,,# ,,,,,,,,,,,,,,  ,,,,,,&",
"-,,,,,,  ,,,,,,,,,,,,,,  ,,,,,,&",
"    .                    .   .  ",
"3  #. +         .o . O   o # oO3",
"122222222222221  22222221222222;",
"*,,,,,,,,,,,,,,  >,,,,,,,,,,,,,&",
":>,,,,,,,,,,,,,  ,,,,,,,,,,,,,,&",
"*,,,,,,,,,,,,,,  ,,,,,,,,,,,,,,&",
"*,,,,,,,,,,,,,,  ,,,,,,,,,,,,,,&",
";>,,,,,,,,,,,,,  ,,,,,,,,,,,,,,&",
">,,,,,,,,,,,,,,  ,,,,,,,,,,,,,,&",
"*,,,,,,,,,,,,,,  ,,,,,,,,,,,,,,&",
";,,,,,,,,,,,,,,. ,,,,,,,,,,,,,,&",
"%             .33               "
};
