/* XPM */
static char *front[] = {
/* columns rows colors chars-per-pixel */
"32 32 239 2 ",
"   c #040F0C",
".  c #1E100E",
"X  c #090711",
"o  c #291717",
"O  c #2A1718",
"+  c #372524",
"@  c #3F2422",
"#  c #451405",
"$  c #4F211B",
"%  c #712216",
"&  c #4B262C",
"*  c #40302A",
"=  c #48302A",
"-  c #673127",
";  c #733E33",
":  c #773F36",
">  c #63403E",
",  c #674C3B",
"<  c #37215A",
"1  c #4C2A68",
"2  c #5D3B6B",
"3  c #5F3472",
"4  c #9C0304",
"5  c #AD0808",
"6  c #B50201",
"7  c #B70103",
"8  c #B80203",
"9  c #B1010A",
"0  c #B80A0B",
"q  c #A9181E",
"w  c #BB1018",
"e  c #88342F",
"r  c #853533",
"t  c #983F31",
"y  c #C70404",
"u  c #CE0103",
"i  c #CF050A",
"p  c #CE1B1E",
"a  c #DC151A",
"s  c #EE010A",
"d  c #EF050B",
"f  c #E10B0D",
"g  c #F10707",
"h  c #F40408",
"j  c #EE180B",
"k  c #E20914",
"l  c #ED0C13",
"z  c #ED0C17",
"x  c #F20E13",
"c  c #EE141F",
"v  c #F01512",
"b  c #FA1017",
"n  c #FE1615",
"m  c #FF141A",
"M  c #F31F18",
"N  c #F6181D",
"B  c #FA1124",
"V  c #F91A26",
"C  c #C5232F",
"Z  c #D1333B",
"A  c #D5363D",
"S  c #E22529",
"D  c #9A422C",
"F  c #8D4431",
"G  c #8F4731",
"H  c #91403B",
"J  c #9D523A",
"K  c #9B503E",
"L  c #A44F30",
"P  c #A75430",
"I  c #AB5336",
"U  c #AB583A",
"Y  c #B35A3B",
"T  c #C86A3F",
"R  c #E62142",
"E  c #E63644",
"W  c #F73D4A",
"Q  c #9D5340",
"!  c #854F52",
"~  c #A05546",
"^  c #AD5E40",
"/  c #87655B",
"(  c #B7765F",
")  c #BC7F67",
"_  c #CA6844",
"`  c #D16E48",
"'  c #CC7044",
"]  c #F0E12F",
"[  c #FCEB2C",
"{  c #AB867E",
"}  c #B1847F",
"|  c #D0856F",
" . c #DB8A6E",
".. c #C78770",
"X. c #C18872",
"o. c #C68B70",
"O. c #D1987D",
"+. c #D29C7D",
"@. c #E49067",
"#. c #E69875",
"$. c #DDA17D",
"%. c #0C2585",
"&. c #0F2A86",
"*. c #11379E",
"=. c #0C36A2",
"-. c #0F38A6",
";. c #0F3CAF",
":. c #1237A0",
">. c #1036A3",
",. c #1535A5",
"<. c #123AA7",
"1. c #1E3CA6",
"2. c #133DA9",
"3. c #113DAD",
"4. c #1A3DAC",
"5. c #123FB1",
"6. c #3E518D",
"7. c #2C4692",
"8. c #1143B7",
"9. c #1540B8",
"0. c #1345BA",
"q. c #1542BC",
"w. c #1746BF",
"e. c #164DBE",
"r. c #2140A9",
"t. c #3048A4",
"y. c #2246B6",
"u. c #2749B7",
"i. c #3955B7",
"p. c #2A71A9",
"a. c #4C4D8F",
"s. c #444D98",
"d. c #7D408B",
"f. c #4B6D9D",
"g. c #1446C2",
"h. c #1847C5",
"j. c #1449C3",
"k. c #174AC3",
"l. c #194BC6",
"z. c #154CC8",
"x. c #0F52CC",
"c. c #1950CE",
"v. c #1950CF",
"b. c #1B50D0",
"n. c #1B55D2",
"m. c #1B55D3",
"M. c #1C55D3",
"N. c #1E55D3",
"B. c #1D52D4",
"V. c #1956D7",
"C. c #1E57D5",
"Z. c #1C55D6",
"A. c #1D56D7",
"S. c #185DD4",
"D. c #1E57D8",
"F. c #1F58D9",
"G. c #1D58DA",
"H. c #1F5ADA",
"J. c #2344C1",
"K. c #2252C9",
"L. c #2653CF",
"P. c #2057D7",
"I. c #2C59D5",
"U. c #2159D8",
"Y. c #2059DA",
"T. c #225BDC",
"R. c #225DDD",
"E. c #245DDE",
"W. c #245EDF",
"Q. c #255EDF",
"!. c #285DD9",
"~. c #2662D4",
"^. c #0F46E2",
"/. c #275CE0",
"(. c #255EE2",
"). c #2C5FE0",
"_. c #245DEA",
"`. c #1869E4",
"'. c #2762E2",
"]. c #2863E3",
"[. c #2A63E4",
"{. c #2E65E7",
"}. c #3565EB",
"|. c #A66EA3",
" X c #2986B0",
".X c #BF8785",
"XX c #9698A0",
"oX c #9099A5",
"OX c #AFA9AC",
"+X c #A7AEBB",
"@X c #C79783",
"#X c #E99395",
"$X c #D7B281",
"%X c #ECA384",
"&X c #EEAB89",
"*X c #F9AD8B",
"=X c #F3B087",
"-X c #FDB183",
";X c #E7A690",
":X c #F0AE91",
">X c #FBB696",
",X c #FCB694",
"<X c #F5C290",
"1X c #F8C19A",
"2X c #FDC098",
"3X c #EFC4A3",
"4X c #FCCFA3",
"5X c #FCD2A6",
"6X c #F8CCB2",
"7X c #94A5D1",
"8X c #BEBAC4",
"9X c #B4B7D8",
"0X c #C2C4C8",
"qX c #C8C7CC",
"wX c #CFCBCD",
"eX c #CBCAD0",
"rX c #CECFD3",
"tX c #CECDD7",
"yX c #D4D5D6",
"uX c #DAD4D6",
"iX c #E3CECD",
"pX c #EAD5D8",
"aX c #E2EAE4",
"sX c #E7EAE4",
"dX c #EEEAE7",
"fX c #EBE7E8",
"gX c #EDECEA",
"hX c #F9EFE7",
"jX c #F6EDEE",
"kX c #FDF0E5",
"lX c #F9F1EF",
"zX c #F9F3EF",
"xX c #F3EFF0",
"cX c #F4F3F3",
"vX c #FDF3F1",
"bX c #F5F8F2",
"nX c #FEF9F6",
"mX c #FFFBF8",
"MX c None",
/* pixels */
"MXMXMXMXMXMXMXMXMXMXMXMXMXMXMXMXMXMXMXMXMXMXMXMXMXMXMXMXMXMXMXMX",
"MXMXMXMXMXMXMXMXMXMXMXMXMXMXMXMXMXMXMXMXMXMXMXMXMXMXMXMXMXMXMXMX",
"MXMXMXMXMXMXMXMXMXMXMXMXMXMXMXMXMXMXMXMXMXMXMXMXMXMXMXMXMXMXMXMX",
"MXMXMXMXMXMXMXMXMXMXMXMXMXMXMXB j #XMXMXMXMXMXMXMXMXMXMXMXMXMXMX",
"MXMXMXMXMXMXMXMXMXMXMXMXMXM V A R s S MXMXMXMXMXMXMXMXMXMXMXMXMX",
"MXMXMXMXMXMXMXMXMXMXMXMXW x E iXpXZ i C MXMXMXMXMXMXMXMXMXMXMXMX",
"MXMXMXMXMXMXMXMXMXMXMXMXN f c k y a 8 w MXMXMXMXMXMXMXMXMXMXMXMX",
"MXMXMXMXMXMXMXMXMXMXMXMXp e X ( )   r q MXMXMXMXMXMXMXMXMXMXMXMX",
"MXMXMXMXMXMXMXMXMXMXMXMX% #.9X-X@.7Xo.# MXMXMXMXMXMXMXMXMXMXMXMX",
"MXMXMXMXMXMXMXMXMXMXMX:Xt <Xp.3X$X X&X$ ..MXMXMXMXMXMXMXMXMXMXMX",
"MXMXMXMXMXMXMXMXMXMXMX6XF @ 5X4X2X>Xo - @XMXMXMXMXMXMXMXMXMXMXMX",
"MXMXMXMXMXMXMXMXMXMXMXMX1X+ & =X$.. O ;XMXMXMXMXMXMXMXMXMXMXMXMX",
"MXMXMXMXMXMXMXMXMXMXMXMXMX*X%X= * X.+.MXMXMXMXMXMXMXMXMXMXMXMXMX",
"MXMXMXMXMXMXMXMXMXMXMXMXMX|..X,XO.} 2 MXMXMXMXMXMXMXMXMXMXMXMXMX",
"MXMXMXMXMXMXMXMXMXMXMXMXn `.3 v 6 < 1.5 MXMXMXMXMXMXMXMXMXMXMXMX",
"MXMXMXMXMXMXMXMXMXMXMXm d [ e.{.!.^.] 4 6 MXMXMXMXMXMXMXMXMXMXMX",
"MXMXMXMXMXMXMXMXMXMXb l d.f.~.[.E.x.a.1 9 h MXMXMXMXMXMXMXMXMXMX",
"MXMXMXMXMXMXMXMXMXbXz 0 }.'.[.Q.T.D.v.u.u g sXMXMXMXMXMXMXMXMXMX",
"MXMXMXMXMXMXMXMXMXvXwX! L.n.P.P.n.v.h.y.H aXzXxXMXMXMXMXMXMXMXMX",
"MXMXMXMXMXMXMXMXnXdXyXMXJ.w.8.0.5.3.2.r.MXjXnXfXMXMXMXMXMXMXMXMX",
"MXMXMXMXMXMXMXcXgXtX8XMXI.h.-.*.,.=.-.,.MXOXvXrX0XMXMXMXMXMXMXMX",
"MXMXMXMXMXMXMXMXeXqXoXMXS./.l.&.%.;.A.z.MXXXuX+XMXMXMXMXMXMXMXMX",
"MXMXMXMXMXMXMXMXMXMXMXMX_.G.k.6.t.V.F.k.MXMXMXMXMXMXMXMXMXMXMXMX",
"MXMXMXMXMXMXMXMXMXMXMXMX(.G.q.MXMXF.F.b.MXMXMXMXMXMXMXMXMXMXMXMX",
"MXMXMXMXMXMXMXMXMXMXMXMX'.A.5.MXMXC.F.M.MXMXMXMXMXMXMXMXMXMXMXMX",
"MXMXMXMXMXMXMXMXMXMXMXMX[.n.3.MXMXM.T.E.i.MXMXMXMXMXMXMXMXMXMXMX",
"MXMXMXMXMXMXMXMXMXMXMX_ K 7.1.MXMXK.s.U _ MXMXMXMXMXMXMXMXMXMXMX",
"MXMXMXMXMXMXMXMXMXMX`  .Y , ; MXMX~ I | _ ^ MXMXMXMXMXMXMXMXMXMX",
"MXMXMXMXMXMXMXMXMXMXJ P F ; / MXMX{ K P D , MXMXMXMXMXMXMXMXMXMX",
"MXMXMXMXMXMXMXMXMXMXMXkXkXMXMXMXMXMXMXMXMXMXMXMXMXMXMXMXMXMXMXMX",
"MXMXMXMXMXMXMXMXMXMXMXMXMXMXMXMXMXMXMXMXMXMXMXMXMXMXMXMXMXMXMXMX",
"MXMXMXMXMXMXMXMXMXMXMXMXMXMXMXMXMXMXMXMXMXMXMXMXMXMXMXMXMXMXMXMX"
};
