/* XPM */
static char *goal_close[] = {
/* columns rows colors chars-per-pixel */
"32 32 55 1 ",
"  c #713822",
". c #734535",
"X c #7C4937",
"o c #7C514A",
"O c #E50003",
"+ c #E50004",
"@ c #E6010B",
"# c #E6000C",
"$ c #E60012",
"% c #C82E37",
"& c #CC2C35",
"* c #C3313A",
"= c #E03639",
"- c #E53A3C",
"; c #86462B",
": c #894A2F",
"> c #8A4B30",
", c #8B4C31",
"< c #82503F",
"1 c #9F5231",
"2 c #9C563A",
"3 c #AD5E3C",
"4 c #B1613F",
"5 c #E03D42",
"6 c #BA6946",
"7 c #A36A52",
"8 c #C0704D",
"9 c #E9B200",
"0 c #ECB502",
"q c #FFDA00",
"w c #AB806A",
"e c #D7845D",
"r c #C5876C",
"t c #D6888D",
"y c #F08085",
"u c #EF9D9E",
"i c #F39397",
"p c #F3969B",
"a c #F4989E",
"s c #F49AA0",
"d c #C2ADA7",
"f c #EFA5A8",
"g c #F1A0A0",
"h c #F5A6AA",
"j c #F1B2B5",
"k c #D7C2C8",
"l c #D8D6DD",
"z c #F4DEDE",
"x c #E7E7E7",
"c c #E9E9E9",
"v c #F1F1F1",
"b c #F3F3F3",
"n c gray96",
"m c gray97",
"M c None",
/* pixels */
"MMMMMMMMMMMMMMMMMMMMMMMMMMMMMMMM",
"MMMMMMMMMMMMMMMMMMMMMMMMMMMMMMMM",
"MMMMMMMMMMMMMMMMMMMMMMMMMMMMMMMM",
"MMMMMMMMMMMMMMMM0MMMMMMMMMMMMMMM",
"MMMMMMMMMMMMMMMq9MMMMMMMMMMMMMMM",
"MMMMMMMMMMMMMMMuMMMMMMMMMMMMMMMM",
"MMMMMMMMMMMMMltgMMMMMMMMMMMMMMMM",
"MMMMMMMMMMM5%k=fMMMMMMMMMMMMMMMM",
"MMMMMMMMMMMMM*&jxMMMMMMMMMMMMMMM",
"MMMMMMMMMMMMMMMzMMMMMMMMMMMMMMMM",
"MMMMMMMMMMMMMMMvMMMMMMMMMMMMMMMM",
"MMMMMMMMMMMMMMMvMMMMMMMMMMMMMMMM",
"MMMMMMMMMMMMMMMmMMMMMMMMMMMMMMMM",
"MMMMMMMMMMMMMMMmMMMMMMMMMMMMMMMM",
"MMMMMMMMMMMMMMMmMMMMMMMMMMMMMMMM",
"MMMMMMMMMMMMMMMmMMMMMMMMMMMMMMMM",
"MMMMMMMMMMMMMMMmMMMMMMMMMMMMMMMM",
"MMMMMMMMMMMMMMMmMMMMMMMMMMMMMMMM",
"MMMMMMMMMMMMMMMvMMMMMMMMMMMMMMMM",
"MMMMMMMMMMMMMMMmMMMMMMMMMMMMMMMM",
"MMMMMMMMMMMMMMMvcMMMMMMMMMMMMMMM",
"MMMMMMMMMMMMMMMvMMMMMMMMMMMMMMMM",
"MMMMMMMMMMMMMMMMMMMMMMMMMMMMMMMM",
"MMMMMMMMMMMMMMMMMMMMMMMMMMMMMMMM",
"MMMMMMMMMMMMMModw7MMMMMMMMMMMMMM",
"MMMMMMMMMMMMMM 3>1MMMMMMM$$$$$$$",
"MMMMMMMMMMMMMMr2,<MMMMMMM$$$$$$$",
"MMMMMMMMMMMMMMe6;XMMMMMMM$+OOO#$",
"MMMMMMMMMMMMMM84:.MMMMMMM$-iah@$",
"MMMMMMMMMMMMMMMMMMMMMMMMM$$ysp$$",
"MMMMMMMMMMMMMMMMMMMMMMMMM$$$$$$$",
"MMMMMMMMMMMMMMMMMMMMMMMMM$$$$$$$"
};
