/* XPM */
static char *left[] = {
/* columns rows colors chars-per-pixel */
"32 32 207 2 ",
"   c #363532",
".  c #433C32",
"X  c #793732",
"o  c #6D3C2E",
"O  c #484136",
"+  c #78502F",
"@  c #654B34",
"#  c #734D34",
"$  c #7A4D3D",
"%  c #754A36",
"&  c #7C5234",
"*  c #79533B",
"=  c #704C33",
"-  c #293A74",
";  c #433F40",
":  c #5F3751",
">  c #472E55",
",  c #38426D",
"<  c #574D56",
"1  c #474548",
"2  c #644D4A",
"3  c #685345",
"4  c #7F5F40",
"5  c #694456",
"6  c #78685B",
"7  c #495476",
"8  c #6E4772",
"9  c #707F6F",
"0  c #776768",
"q  c #A93E3E",
"w  c #C23E3A",
"e  c #8A5A38",
"r  c #B3453E",
"t  c #8F633C",
"y  c #90504F",
"u  c #A64747",
"i  c #BA4344",
"p  c #B64745",
"a  c #AD504F",
"s  c #B15858",
"d  c #A95955",
"f  c #8A644A",
"g  c #936547",
"h  c #897B5A",
"j  c #9D7957",
"k  c #8C6551",
"l  c #AC615E",
"z  c #A97256",
"x  c #824C6B",
"c  c #AA5E61",
"v  c #9B6565",
"b  c #A66A66",
"n  c #BD676A",
"m  c #A67F68",
"M  c #BA7579",
"N  c #C54946",
"B  c #CC4C4B",
"V  c #C64847",
"C  c #D54A45",
"Z  c #D44D4A",
"A  c #DD4E48",
"S  c #C9544A",
"D  c #D5524E",
"F  c #DE524E",
"G  c #C95A5A",
"H  c #DD5452",
"J  c #DC5B5A",
"K  c #D75855",
"L  c #E54F4E",
"P  c #E3514E",
"I  c #E35552",
"U  c #E35D59",
"Y  c #EB5B58",
"T  c #DF635C",
"R  c #CD715A",
"E  c #D66A66",
"W  c #C57B7D",
"Q  c #EB6B6A",
"!  c #F26561",
"~  c #EA726C",
"^  c #E06D71",
"/  c #EB7072",
"(  c #F17A76",
")  c #95935F",
"_  c #A2885C",
"`  c #9A8262",
"'  c #8B8277",
"]  c #958574",
"[  c #BF8870",
"{  c #B28C64",
"}  c #CC9479",
"|  c #D28066",
" . c #E39F73",
".. c #EBA278",
"X. c #F0A07F",
"o. c #D7D674",
"O. c #253B85",
"+. c #263D8C",
"@. c #253E93",
"#. c #293E91",
"$. c #293FAC",
"%. c #2C448E",
"&. c #2A4387",
"*. c #3A4A88",
"=. c #2B429C",
"-. c #274293",
";. c #334D95",
":. c #34499C",
">. c #38539B",
",. c #2D44A2",
"<. c #2D43AA",
"1. c #2E49A5",
"2. c #334BAB",
"3. c #344DA4",
"4. c #3A55A6",
"5. c #3652AD",
"6. c #2D43B3",
"7. c #2E4AB3",
"8. c #3149B7",
"9. c #394EB5",
"0. c #384FBC",
"q. c #334BB8",
"w. c #3B53B3",
"e. c #3B52BC",
"r. c #3650BF",
"t. c #435B9A",
"y. c #465998",
"u. c #59638A",
"i. c #5B6995",
"p. c #4F6596",
"a. c #626F9A",
"s. c #6A7D9F",
"d. c #67658A",
"f. c #4359AD",
"g. c #5C70BC",
"h. c #4164BA",
"j. c #6A7DA7",
"k. c #364DC3",
"l. c #384DCC",
"z. c #3246C2",
"x. c #3C53C5",
"c. c #3E5ACC",
"v. c #3B54C8",
"b. c #415AC4",
"n. c #4158CE",
"m. c #4055D3",
"M. c #4761C7",
"N. c #4E6AD6",
"B. c #546CD5",
"V. c #526CDA",
"C. c #5B77D8",
"Z. c #807E94",
"A. c #D47F82",
"S. c #C87B81",
"D. c #9C9084",
"F. c #B0958C",
"G. c #AAA091",
"H. c #929CAF",
"J. c #949BBA",
"K. c #B49BA1",
"L. c #99A0B3",
"P. c #ACABA2",
"I. c #CC9981",
"U. c #C9979B",
"Y. c #CB9093",
"T. c #DEAC91",
"R. c #DCB398",
"E. c #E7AA89",
"W. c #F5AF8D",
"Q. c #E2B28E",
"!. c #FCB08C",
"~. c #E9B696",
"^. c #FCBC92",
"/. c #FAB895",
"(. c #D1ACAB",
"). c #C6B8B5",
"_. c #D9B7B9",
"`. c #C5BBAE",
"'. c #EDBFA0",
"]. c #E0BDBF",
"[. c #D1C19A",
"{. c #FCC29B",
"}. c #DAC2BE",
"|. c #FCC4A3",
" X c #FDC9A3",
".X c #F8C7A7",
"XX c #F2CDB1",
"oX c #EFCBB2",
"OX c #AFB7CC",
"+X c #DCBFC1",
"@X c #B8C3DD",
"#X c #DEC5C3",
"$X c #DBD7DA",
"%X c #E5DFD8",
"&X c #F0DCD1",
"*X c #E7CDCA",
"=X c #E3E2DD",
"-X c #F2E8DF",
";X c #E3E2E2",
":X c #EDEDEB",
">X c #E7E8E7",
",X c #F2E8E5",
"<X c #F1EFF0",
"1X c #F4F4F2",
"2X c #F5F7FB",
"3X c #ECF9FF",
"4X c None",
/* pixels */
"4X4X4X4X4X4X4X4X4X4X4X4X4X4X4X4X(.U._.4X4X4X4X4X4X4X4X4X4X4X4X4X",
"4X4X4X4X4X4X4X4X4X4X4X4X4X4X4Xn J K G S.#X4X4X4X4X4X4X4X4X4X4X4X",
"4X4X4X4X4X4X4X4X4X4X4X4X4X4XK.*XK / K Z G U.4X4X4X4X4X4X4X4X4X4X",
"4X4X4X4X4X4X4X4X4X4X4X4X4X4X$X#XJ ~ ( H C D W *X4X4X4X4X4X4X4X4X",
"4X4X4X4X4X4X4X4X4X4X4X4X_.U.S.U.D U Q ~ H B V n #X4X4X4X4X4X4X4X",
"4X4X4X4X4X4X4X4X4X4X4XA.E E J S A K U T Q F C N s +X_.4X4X4X4X4X",
"4X4X4X4X4X4X4X4X4X4X4X4X/ I K I ! C P I U ~ D B V s _.F.4X4X4X4X",
"4X4X4X4X4X4X4X4X4X4X4X4X4X^ P I L ! A P I J U Z V i b G 4X4X4X4X",
"4X4X4X4X4X4X4X4X4X4X4X4X4X4XE E Y U Y Z F H H D V r q u 4X4X4X4X",
"4X4X4X4X4X4X4X4X4X4X&XoXR.~.E.< } R R S N N Z S V i u b 4X4X4X4X",
"4X4X4X4X4X4X4X4X4X.X|.|./.!.|.L..XW.^.} $ X r p p u b 4X4X4X4X4X",
"4X4X4X4X4X4X4X4X4XQ.{. X/.I.'.'.^.^.} k % = ~.|.E.m 4X4X4X4X4X4X",
"4X4X4X4X4X4X4X4X4X4XT.E.` 1 . @ XXXX.Xy % X. ...E.4X4X4X4X4X4X4X",
"4X4X4X4X4X4X4X4X4X4X4X4X.     %X:X:X-XT.E.^. X{.~.4X4X4X4X4X4X4X",
"4X4X4X4X4X4X4X4X4X4X4X4X4X4 ,X:X1X1X<X=X[ b E.~.4X4X4X4X4X4X4X4X",
"4X4X4X4X4X4X4X4X4X4X4X4X4XY.,X1X1X1X1X$XF.X o ).4X4X4X4X4X4X4X4X",
"4X4X4X4X4X4X4X4X4X4X4X4XOXv =X1X1X1X<X;X#Xq M 4X4X4X4X4X4X4X4X4X",
"4X4X4X4X4X4X4X4X4X4X4Xo.h.8 l >X:X:X<X=X>Xu _.4X4X4X4X4X4X4X4X4X",
"4X4X4X4X4X4X4X4X4X4X4Xi.7.7.w.J.$X=X=X2Xy b (.4X4X4X4X4X4X4X4X4X",
"4X4X4X4X4X4X4X4X4X4X4X@X7.k.M.o.[.>X,Xa V w d 0 4X4X4X4X4X4X4X4X",
"4X4X4X4X4X4X4X4X4X4Xg.:.6.k.c.` 9 - : p i i p 5 4X4X4X4X4X4X4X4X",
"4X4X4X4X4X4X4X4XM.n.c.v.6.z.l.c.x.9.:.> y a x - 4X4X4X4X4X4X4X4X",
"4X4X4X4X4X4X4Xb.N.N.c.c.$.6.k.l.l.v.r.5.3.@.=.O.H.1 O @ ' 4X4X4X",
"4X4X4X4X4X4Xf.b.C.V.v.k.<.6.6.8.r.r.r.9.<.#.-.%.p.O.%.*.3 2 4X4X",
"4XD.f 4 D.s.f.B.V.b.6.<.9.<.2.e.0.b.9.2.<.,.+.O.&.y.;.=.y.3 4X4X",
"h g j z e % d.B.M.8.2.=.4.;.t.3.5.w.w.2.,.@.#.-.O.*.%.-.@.- 2 4X",
"D.e j m g % % r.x.<.<.j.4X4X4X4XH.a.i.t.>.:.3.=.@.+.+.+.+.*.= P.",
"4X_ g g g % e u.8.e.*.4X4X4X4X4X4X4X4X4X>.5.3.1.=.@.+.+.O., = 3 ",
"4X4Xh { + + % $ *.1.4X4X4X4X4X4X4X4X4X4X4X4.5.5.1.-.-.;.O.< % * ",
"4X4X4X4Xj f & + $ 7 4X4X4X4X4X4X4X4X4X4X4X@Xy.4.;.*.s.u.< * @ 4X",
"4X4X4X4X4Xh { * & `.4X4X4X4X4X4X4X4X4X4X4X4X4X3X3X4X4X' 6 ] 4X4X",
"4X4X4X4X4X4X4X` G.4X4X4X4X4X4X4X4X4X4X4X4X4X4X4X4X4X4X4X4X4X4X4X"
};
