/* XPM */
static char *open_goal[] = {
/* columns rows colors chars-per-pixel */
"32 32 77 1 ",
"  c #021202",
". c #021302",
"X c #021602",
"o c #021702",
"O c #011A01",
"+ c #031F03",
"@ c #023002",
"# c #053005",
"$ c #053305",
"% c #053405",
"& c #063606",
"* c #063706",
"= c #083508",
"- c #083608",
"; c #083908",
": c #083A08",
"> c #365109",
", c #36520A",
"< c #39540C",
"1 c #028C02",
"2 c #038C03",
"3 c #058905",
"4 c #048C04",
"5 c #058C05",
"6 c #058D05",
"7 c #088C08",
"8 c #088F08",
"9 c #439E0A",
"0 c #529D09",
"q c #539E09",
"w c #569F09",
"e c #549D0C",
"r c #43A30A",
"t c #57A009",
"y c #54A20C",
"u c #57A10F",
"i c #58A00B",
"p c #60A40B",
"a c #68A70B",
"s c #69A70D",
"d c #80B30D",
"f c #84B70D",
"g c #82A310",
"h c #83A312",
"j c #83A411",
"k c #84A413",
"l c #85A415",
"z c #85A515",
"x c #8BBB11",
"c c #8DBE11",
"v c #99C60F",
"b c #9BC70F",
"n c #8DC011",
"m c #96C110",
"M c #97C212",
"N c #9BC510",
"B c #9AC611",
"V c #98C512",
"C c #99C512",
"Z c #A7CD15",
"A c #AAD112",
"S c #AAD213",
"D c #AED312",
"F c #AAD114",
"G c #ABD115",
"H c #AED214",
"J c #AED314",
"K c #ADD217",
"L c #AED514",
"P c #AED415",
"I c #AED515",
"U c #B1D514",
"Y c #B0D517",
"T c #B0D617",
"R c #ECECEC",
"E c #F8F8F8",
"W c None",
/* pixels */
"WWWWWWWWWWWWWWWWWWWWWWWWWWWWWWWW",
"WWWWWWWWWWWWWWWWWWWWWWWWWWWWWWWW",
"WWWWWWWWWWWWWWWWWWWWWWWWWWWWWWWW",
"WWWWWWWWWWWWWWWWWWWWWWWWWWWWWWWW",
"WWWWWWWWWWWWWWWWWWWWWWWWWWWWWWWW",
"WWWWWWWWWWWWWWWWWWWWWWWWWWWWWWWW",
"WWWWWWWWWWW<>>><>>,,>+WWWWWWWWWW",
"WWWWWWWWWWW5eKL755335OWWWWWWWWWW",
"WWWWWWWWWWWGuFLH755fn.WWWWWWWWWW",
"WWWWWWWWWWWKuFLH555w9oWWWWWWWWWW",
"WWWWWWWWWWWGuFLH552puWWWWWWWWWWW",
"WWWWWWWWWWWGuFLH554MZoWWWWWWWWWW",
"WWWWWWWWWWWGuFLH552bK.WWWWWWWWWW",
"WWWWWWWWWWWGuFLK855xcWWWWWWWWWWW",
"RWWWWWWWWWWPtTTU845tr WWWWWWWWWW",
"WWWWWWWWWWW&#-;-:&&&@WWWWWWWWWWW",
"WWWWWWWWWWWjvFFK522mjWWWWWWWWWWW",
"WWWWWWWWWWWzBFFF522BjWWWWWWWWWWW",
"WWWWWWWWWWWzBFFK222fjWWWWWWWWWWW",
"WWWWWWWWWWWkvFFF522qjWWWWWWWWWWW",
"WWWWWWWWWWWzvFFF524ajWWWWWWWWWWW",
"WWWWWWWWWWWjvFFF224bjWWWWWWWWWWW",
"WWWWWWEWWWWzvFFF552ZjWWWWWWWWWWW",
"WWWWWWWWWWWgvFFF555sjWWWWWWWWWWW",
"WWWWWWWWWWWzvFFF555qgWWWWWWWWWWW",
"WWWWWWWWWWWzBFFG112sgWWWWWWWWWWW",
"WWWWWWWWWWWWWWWWWWWWWWWWWWWWWWWW",
"WWWWWWWWWWWWWWWWWWWWWWWWWWWWWWWW",
"WWWWWWWWWWWWWWWWWWWWWWWWWWWWWWWW",
"WWWWWWWWWWWWWWWWWWWWWWWWWWWWWWWW",
"WWWWWWWWWWWWWWWWWWWWWWWWWWWWWWWW",
"WWWWWWWWWWWWWWWWWWWWWWWWWWWWWWWW"
};
