/* XPM */
static char *right[] = {
/* columns rows colors chars-per-pixel */
"32 32 204 2 ",
"   c #1F090B",
".  c #7A1708",
"X  c #761917",
"o  c #46201D",
"O  c #5E3213",
"+  c #7F2A06",
"@  c #723913",
"#  c #713E11",
"$  c #4C2424",
"%  c #442F29",
"&  c #6D421A",
"*  c #6A4518",
"=  c #78461B",
"-  c #7C4C24",
";  c #794F33",
":  c #6C543D",
">  c #7D5B3F",
",  c #092F7B",
"<  c #745244",
"1  c #7D634D",
"2  c #8C171D",
"3  c #822D06",
"4  c #931B22",
"5  c #B51B22",
"6  c #B21D27",
"7  c #822C36",
"8  c #BC272D",
"9  c #B52A2B",
"0  c #B9282A",
"q  c #C61F29",
"w  c #D81D24",
"e  c #D51C29",
"r  c #D71C2A",
"t  c #DC1D28",
"y  c #C61F30",
"u  c #ED1B2C",
"i  c #F11C2B",
"p  c #F61E30",
"a  c #C42529",
"s  c #D52732",
"d  c #DA3337",
"f  c #E0202B",
"g  c #EF202D",
"h  c #E62330",
"j  c #F22E37",
"k  c #F62F37",
"l  c #FD2C37",
"z  c #FB3830",
"x  c #F5363D",
"c  c #FE393C",
"v  c #85461E",
"b  c #A05C1F",
"n  c #884920",
"m  c #AE6335",
"M  c #A67132",
"N  c #AA7038",
"B  c #AD7038",
"V  c #CF7D38",
"C  c #AC2C58",
"Z  c #D83A49",
"A  c #FF3A41",
"S  c #AC434F",
"D  c #C74841",
"F  c #C4465A",
"G  c #DB495E",
"H  c #D65451",
"J  c #FB4544",
"K  c #CC604C",
"L  c #CE6C75",
"P  c #DC6B72",
"I  c #F16365",
"U  c #B4977C",
"Y  c #D68071",
"T  c #E18D78",
"R  c #032E87",
"E  c #013494",
"W  c #07389B",
"Q  c #033CA3",
"!  c #023EA3",
"~  c #013BA6",
"^  c #35419A",
"/  c #0040A5",
"(  c #0341A5",
")  c #0543A8",
"_  c #0642A8",
"`  c #0344AA",
"'  c #0146AE",
"]  c #0046B0",
"[  c #0148B3",
"{  c #034BB4",
"}  c #004CB6",
"|  c #014CB6",
" . c #0D4EB7",
".. c #024CBD",
"X. c #034CBE",
"o. c #044FBD",
"O. c #2B5BAF",
"+. c #1474AE",
"@. c #3D70A6",
"#. c #7A7E99",
"$. c #004CC2",
"%. c #0B4FC6",
"&. c #0452C2",
"*. c #0C51C5",
"=. c #0153CA",
"-. c #0254CB",
";. c #0D57C9",
":. c #0358D0",
">. c #0559D9",
",. c #025ADC",
"<. c #1456D2",
"1. c #1C76CD",
"2. c #0A63DD",
"3. c #025DE1",
"4. c #085EE1",
"5. c #045EE8",
"6. c #0267E0",
"7. c #0268E7",
"8. c #0163E8",
"9. c #0660EA",
"0. c #036AE9",
"q. c #016CEB",
"w. c #016BED",
"e. c #027AE9",
"r. c #077DEE",
"t. c #046BF2",
"y. c #0270F3",
"u. c #0374F4",
"i. c #0075F9",
"p. c #007CFA",
"a. c #027BFE",
"s. c #527FC4",
"d. c #4886A9",
"f. c #488DAE",
"g. c #1489E6",
"h. c #0188FF",
"j. c #1892FE",
"k. c #ADABB8",
"l. c #CA8F88",
"z. c #DA8C8A",
"x. c #DD9481",
"c. c #E08186",
"v. c #E19B82",
"b. c #D2AA98",
"n. c #EDA58C",
"m. c #E5A298",
"M. c #E3A89B",
"N. c #EEB094",
"B. c #E9B299",
"V. c #EEB599",
"C. c #E8B39D",
"Z. c #FEBB9F",
"A. c #E298A1",
"S. c #CAB4A2",
"D. c #D0BFAF",
"F. c #C8B4BD",
"G. c #E5FE8D",
"H. c #FCC0A6",
"J. c #FDC3A6",
"K. c #EFD1A9",
"L. c #EBCCB2",
"P. c #F2C3B0",
"I. c #FBC9B2",
"U. c #F8CFB4",
"Y. c #FCD5B2",
"T. c #FED0B6",
"R. c #8E9DC2",
"E. c #A9B8CF",
"W. c #AEB9CD",
"Q. c #E3B7CB",
"!. c #ACC3DC",
"~. c #BFCEEF",
"^. c #D8CCC4",
"/. c #C4CAD5",
"(. c #FFD3C5",
"). c #F0D9DD",
"_. c #FED9D9",
"`. c #FAE7CD",
"'. c #F7E2D2",
"]. c #C0C7E0",
"[. c #C9D5E6",
"{. c #C0D8F3",
"}. c #CADCF5",
"|. c #E8D8E2",
" X c #D9E0F0",
".X c #FFFCEA",
"XX c #ECE4F3",
"oX c #EDEFF5",
"OX c #E0F3F1",
"+X c #EFF5F7",
"@X c #E9F3F8",
"#X c #EEF8FA",
"$X c #EEF9FE",
"%X c #F3F3F3",
"&X c #F6FBF7",
"*X c #F3FAFE",
"=X c #F5F9FF",
"-X c #F4FDFF",
";X c #FCFBFB",
":X c #F8FFFF",
">X c #FCFEFD",
",X c #FEFEFC",
"<X c #FEFDFF",
"1X c None",
/* pixels */
"1X1X1X1X1X1X1X1X1X1X1X1X1X1X1X1X1X1X1X1X1X1X1X1X1X1X1X1X1X1X1X1X",
"1X1X1X1X1X1X1X1X1X1X1X1X1X1X1X1X1X1X1X1X1X1X1X1X1X1X1X1X1X1X1X1X",
"1X1X1X1X1X1X1X1X1X1X1X1X1X1X1X1X%X1X1X1X1X1X1X1X1X1X1X1X1X1X1X1X",
"1X1X1X1X1X1X1X1X1X1X1X1X1X1X1Xk.1X1X1X1X1X1X1X1X1X1X1X1X1X1X1X1X",
"1X1X1X1X1X1X1X1X1X1X1XZ A ).1XXX,X].1X1X1X1X1X1X1X1X1X1X1X1X1X1X",
"1X1X1X1X1X1X1X1X1X1X1Xg j '.I Q. X&X#X1X1X1X1X1X1X1X1X1X1X1X1X1X",
"1X1X1X1X1X1X1X1X1X1Xf i z G d 2 |.=X@X1X1X1X1X1X1X1X1X1X1X1X1X1X",
"1X1X1X1X1X1X1X1X1X1Xs u r 8 l.X A.+X1X1X1X1X1X1X1X1X1X1X1X1X1X1X",
"1X1X1X1X1X1X1X1X1X1Xr w 4 B.`.P l z.1X1X1X1X1X1X1X1X1X1X1X1X1X1X",
"1X1X1X1X1X1X1X1X1XL q 9 v.f.U.(..X1X1X1X1X1X1X1X1X1X1X1X1X1X1X1X",
"1X1X1X1X1X1X1X1X1Xa 6 + H.@.M.C.L.1X1X1X1X1X1X1X1X1X1X1X1X1X1X1X",
"1X1X1X1X1X1X1X1X1X0 I.3 V.%   o $ 1X1X1X1X1X1X1X1X1X1X1X1X1X1X1X",
"1X1X1X1X1X1X1X1X1X1XK.x.N.Y.b.F.J.1X1X1X1X1X1X1X1X1X1X1X1X1X1X1X",
"1X1X1X1X1X1X1X1X1X1XP.Z.T n.T.S H 1X1X1X1X1X1X1X1X1X1X1X1X1X1X1X",
"1X1X1X1X1X1X1X1X1X1X1X. D K Y m.#.1X1X1X1X1X1X1X1X1X1X1X1X1X1X1X",
"1X1X1X1X1X1X1X1X1X1Xc.c x J F r.s.d.1X1X1X1X1X1X1X1X1X1X1X1X1X1X",
"1X1X1X1X1X1X1X1X,X:X_.k f t p +.G.h.1X1X1XV m 1X1X1X1X1X1X1X1X1X",
"1X1X1X1X1X1X1X$X,X,XOXy 7 5 C i.2.e.j.g.1.B v 1X1X1X1X1X1X1X1X1X",
"1X1X1X1X1X1X1X{.-X=X/.1X1X^ 5.w.7.y.u.a.h.b @ 1X1X1X1X1X1X1X1X1X",
"1X1X1X1X1X1X1X!.}.E.oX1X1Xo.3.8.q.9.4.0.t.< ; 1X1X1X1X1X1X1X1X1X",
"1X1X1X1X1X1X1X1XW.~.1X1X1X%.=.,.>.-.| ..:.< U 1X1X1X1X1X1X1X1X1X",
"1X1X1X1X1X1X1X1X1X1X1X1X1X;.| $...[ [.O.] * D.1X1X1X1X1X1X1X1X1X",
"1X1X1X1X1X1X1X1X1X1X1X1X1X1X .{ _ 1X1X1X1X: 1X1X1X1X1X1X1X1X1X1X",
"1X1X1X1X1X1X1X1X1X1X1X1XR.E , R W 1X1X1X1X1X1X1X1X1X1X1X1X1X1X1X",
"1X1X1X1X1X1X1X1X1X1X1Xv ! ! ~ ( 1X1X1X1X1X1X1X1X1X1X1X1X1X1X1X1X",
"1X1X1X1X1X1X1X1X1X1X1X= 6.' ` _ 1X1X1X1X1X1X1X1X1X1X1X1X1X1X1X1X",
"1X1X1X1X1X1X1X1X1X1X1X& <.&.( 1X1X1X1X1X1X1X1X1X1X1X1X1X1X1X1X1X",
"1X1X1X1X1X1X1X1X1X1X1X& M *.1X1X1X1X1X1X1X1X1X1X1X1X1X1X1X1X1X1X",
"1X1X1X1X1X1X1X1X1X1X1XO B 1X1X1X1X1X1X1X1X1X1X1X1X1X1X1X1X1X1X1X",
"1X1X1X1X1X1X1X1X1X1X1X1 n S.1X1X1X1X1X1X1X1X1X1X1X1X1X1X1X1X1X1X",
"1X1X1X1X1X1X1X1X1X1X1X1X^.1X1X1X1X1X1X1X1X1X1X1X1X1X1X1X1X1X1X1X",
"1X1X1X1X1X1X1X1X1X1X1X1X1X1X1X1X1X1X1X1X1X1X1X1X1X1X1X1X1X1X1X1X"
};
