/* XPM */
static char *wall[] = {
/* columns rows colors chars-per-pixel */
"32 32 24 1 ",
"  c black",
". c #070707",
"X c #0B0B0B",
"o c gray5",
"O c #00121C",
"+ c #00141E",
"@ c #00141F",
"# c gray20",
"$ c #00334F",
"% c #003554",
"& c #005382",
"* c #005A8E",
"= c #005D92",
"- c #005F96",
"; c #00629B",
": c #00649E",
"> c #0069A4",
", c #006AA6",
"< c #006CAA",
"1 c #006EAD",
"2 c #0072B3",
"3 c #008EDF",
"4 c #0091E5",
"5 c white",
/* pixels */
"5.                            .5",
"X:34444444444444444444444444441X",
" -% +2222222222222222222222+ %; ",
" - # 2222222222222222222222 # ; ",
" -+  2222222222222222222222  O; ",
" =1222222222222222222222222221- ",
" =1222222222222222222222222221- ",
" =1222222222222222222222222221- ",
" =1222222222222222222222222221- ",
" =<222222222222222222222222221- ",
" =1222222222222222222222222221- ",
" =<222222222222222222222222221- ",
" =<222222222222222222222222221- ",
" =<222222222222222222222222221= ",
" =<22222222222222222222222222<= ",
" =,222222222222222222222222221= ",
" =,222222222222222222222222221= ",
" =<222222222222222222222222221= ",
" *<22222222222222222222222222<= ",
" *,222222222222222222222222221= ",
" *<22222222222222222222222222<= ",
" *,22222222222222222222222222<= ",
" *,22222222222222222222222222<= ",
" *,22222222222222222222222222<= ",
" *,22222222222222222222222222,= ",
" *,22222222222222222222222222<= ",
" *,22222222222222222222222222<= ",
" *O  2222222222222222222222  O* ",
" * # 2222222222222222222222 # * ",
" *$ O,>,,,>>>>>,>>>>>,>>>,,O $* ",
"o&****************************&.",
"5.                             5"
};
